<svg width="767" height="443" viewBox="0 0 767 443" fill="none" xmlns="http://www.w3.org/2000/svg">
<g id="langCloudAnime">
<g id="JEE">
<path d="M518.853 194.425C519.971 194.514 521.066 194.468 522.106 194.294C526.432 193.57 528.493 191.054 527.791 186.862L525.074 170.632L520.547 171.389L523.185 187.15C523.505 189.062 522.623 189.968 520.443 190.333C520.175 190.378 519.431 190.467 518.207 190.569L518.853 194.425Z" fill="#272D53" fill-opacity="0.78"/>
<path d="M533.865 191.913L549.156 189.353L548.471 185.262L537.707 187.064L536.77 181.464L544.382 180.19L543.736 176.333L536.124 177.607L535.372 173.114L545.734 171.379L545.049 167.288L530.16 169.78L533.865 191.913Z" fill="#272D53" fill-opacity="0.78"/>
<path d="M553.088 188.695L568.379 186.136L567.694 182.044L556.93 183.846L555.993 178.246L563.605 176.972L562.959 173.116L555.347 174.39L554.595 169.896L564.957 168.162L564.272 164.071L549.383 166.563L553.088 188.695Z" fill="#272D53" fill-opacity="0.78"/>
</g>
<g id="C#">
<path d="M341.556 176.237C342.946 195.09 360.559 209.186 379.735 206.962C392.378 205.76 402.552 198.665 407.252 187.872L396.416 181.67C392.438 189.481 386.516 193.761 378.652 194.508C366.407 195.672 356.595 187.565 355.403 175.021C354.211 162.478 362.3 152.467 374.544 151.303C382.409 150.556 389.031 153.643 394.41 160.565L403.883 152.432C397.035 142.736 385.805 137.676 373.361 138.859C354.21 140.278 339.469 157.45 341.556 176.237Z" fill="#272D53" fill-opacity="0.25"/>
<path d="M469.036 157.589L467.967 146.34L459.903 147.106L460.456 131.785L449.505 132.826L448.952 148.147L434.219 149.548L434.771 134.227L423.821 135.268L423.268 150.589L412.517 151.611L413.586 162.86L422.844 161.98L422.283 175.092L412.726 176.001L413.795 187.25L421.859 186.483L421.306 201.805L432.157 200.773L432.71 185.452L447.543 184.042L446.99 199.363L457.841 198.331L458.394 183.01L469.146 181.988L468.076 170.739L458.917 171.61L459.38 158.507L469.036 157.589ZM433.19 174.658L433.738 160.342L448.472 158.941L448.024 173.248L433.19 174.658Z" fill="#272D53" fill-opacity="0.25"/>
</g>
<g id="charachterDes">
<g id="Vector 34" filter="url(#filter0_f)">
<path d="M555.736 236.791C576.166 250.031 613.925 262.117 630.25 266.506C630.388 270.17 627.262 280.128 613.653 290.648C600.044 301.168 290.752 298.65 137.807 296.077L136.526 262.101C144.838 262.288 162.992 260.403 169.115 251.366C176.769 240.069 195.332 232.364 212.588 225.71C229.844 219.055 318.064 237.245 348.636 226.585C379.208 215.926 417.577 233.493 433.042 232.91C448.507 232.327 530.199 220.242 555.736 236.791Z" fill="#2ED7DE" fill-opacity="0.57"/>
</g>
<g id="Ellipse 42" filter="url(#filter1_f)">
<path d="M538.868 179.558C533.17 197.259 505.18 204.086 476.35 194.806C447.52 185.525 428.768 163.652 434.466 145.951C440.164 128.249 468.154 121.423 496.984 130.703C525.814 139.983 544.566 161.856 538.868 179.558Z" fill="#FEBC2E" fill-opacity="0.6"/>
</g>
<g id="Ellipse 43" filter="url(#filter2_f)">
<path d="M602.862 203.021C615.447 229.598 597.156 264.637 562.006 281.283C526.856 297.929 488.158 289.878 475.572 263.301C462.986 236.724 481.278 201.685 516.428 185.039C551.578 168.394 590.276 176.444 602.862 203.021Z" fill="#FB9ACF" fill-opacity="0.35"/>
</g>
<g id="Ellipse 44" filter="url(#filter3_f)">
<path d="M335.862 179.021C348.447 205.598 330.156 240.637 295.006 257.283C259.856 273.929 221.158 265.878 208.572 239.301C195.986 212.724 214.278 177.685 249.428 161.039C284.578 144.394 323.276 152.444 335.862 179.021Z" fill="#FB9ACF" fill-opacity="0.19"/>
</g>
<g id="Ellipse 40" filter="url(#filter4_f)">
<path d="M437.654 120.916C441.472 142.962 402.044 168.197 349.589 177.282C297.133 186.367 251.514 175.861 247.696 153.816C243.878 131.771 283.307 106.535 335.762 97.4497C388.218 88.3648 433.836 98.8712 437.654 120.916Z" fill="#2CD7DE" fill-opacity="0.15"/>
</g>
<g id="Ellipse 45" filter="url(#filter5_f)">
<path d="M238.877 113.224C250.512 140.409 228.646 175.842 190.039 192.365C151.431 208.889 110.702 200.246 99.0669 173.06C87.432 145.875 109.298 110.442 147.905 93.9182C186.512 77.3948 227.242 86.0382 238.877 113.224Z" fill="url(#paint0_linear)" fill-opacity="0.48"/>
</g>
<g id="anime">
<g id="pc">
<path id="Vector 27" d="M337.283 276.399L320.283 233.399H381.783L397.283 273.899H436.283V276.399H337.283Z" fill="#272D53"/>
<path id="Vector 28" d="M356.783 260.399H366.783L352.783 250.399L356.783 260.399Z" fill="white"/>
</g>
<g id="chatter">
<path id="Vector 29 (Stroke)" fill-rule="evenodd" clip-rule="evenodd" d="M349.863 208.339L337.863 204.839L338.703 201.959L350.703 205.459L349.863 208.339Z" fill="#272D53"/>
<path id="Vector 30 (Stroke)" fill-rule="evenodd" clip-rule="evenodd" d="M459.756 117.157L465.696 133.898C465.973 134.678 465.565 135.536 464.784 135.813C464.003 136.09 463.146 135.682 462.869 134.901L457.809 120.642L445.097 123.366C444.287 123.54 443.489 123.024 443.316 122.214C443.142 121.404 443.658 120.606 444.468 120.433L459.756 117.157Z" fill="#272D53"/>
<path id="Rectangle 63" d="M532.618 141.666L541.377 143.735L539.308 152.494L530.549 150.425L532.618 141.666Z" fill="#5568E8"/>
<path id="Rectangle 64" d="M226.254 214.304L238.763 216.21L236.857 228.718L224.348 226.812L226.254 214.304Z" fill="#5568E8"/>
<path id="Vector 31 (Stroke)" fill-rule="evenodd" clip-rule="evenodd" d="M513.979 279.071C514.712 279.455 514.996 280.362 514.611 281.095L508.428 292.899L497.112 287.241C496.371 286.871 496.07 285.97 496.441 285.229C496.811 284.488 497.712 284.187 498.453 284.558L507.137 288.899L511.954 279.703C512.338 278.969 513.245 278.686 513.979 279.071Z" fill="#272D53"/>
</g>
<g id="cat">
<path id="Ellipse 72" d="M248.283 276.899C248.283 274.778 247.44 271.743 245.94 270.242C244.439 268.742 242.404 267.899 240.283 267.899C238.161 267.899 236.126 268.742 234.626 270.242C233.126 271.743 232.783 274.778 232.783 276.899H240.283H248.283Z" fill="#282D53"/>
<path id="Union" fill-rule="evenodd" clip-rule="evenodd" d="M288.783 276.899C298.724 276.899 306.783 268.84 306.783 258.899C306.783 248.958 298.724 240.899 288.783 240.899C280.592 240.899 273.679 246.371 271.499 253.858C269.336 253.228 267.076 252.899 264.783 252.899C258.418 252.899 252.314 255.428 247.813 259.929C243.312 264.43 240.783 270.534 240.783 276.899H264.783H288.783Z" fill="#2ED7DE"/>
<path id="Rectangle 65" d="M294.783 255.399C294.783 254.571 295.455 253.899 296.283 253.899V253.899C297.112 253.899 297.783 254.571 297.783 255.399V256.399C297.783 257.228 297.112 257.899 296.283 257.899V257.899C295.455 257.899 294.783 257.228 294.783 256.399V255.399Z" fill="#282D53"/>
<path id="Rectangle 66" d="M284.783 255.399C284.783 254.571 285.455 253.899 286.283 253.899V253.899C287.112 253.899 287.783 254.571 287.783 255.399V256.399C287.783 257.228 287.112 257.899 286.283 257.899V257.899C285.455 257.899 284.783 257.228 284.783 256.399V255.399Z" fill="#282D53"/>
<path id="Vector 32" d="M276.777 248.549C282.134 243.924 285.678 244.025 286.781 244.654C285.441 243.159 282.375 240.027 280.831 239.448C278.9 238.726 276.743 239.99 276.574 241.481C276.438 242.673 276.653 246.69 276.777 248.549Z" fill="#5467E7"/>
<path id="Vector 33" d="M296.783 243.454C298.783 243.454 302.283 247.787 303.783 249.954C305.283 243.454 306.283 242.399 303.783 241.899C301.783 241.499 297.45 242.454 296.783 243.454Z" fill="#5467E7"/>
</g>
<g id="charachter">
<g id="legs">
<path id="Leg2" d="M529.783 218.399L512.283 228.899L513.283 221.399L531.283 211.899L539.783 221.399L529.783 218.399Z" fill="#272D53"/>
<path id="leg1" d="M548.283 226.899C531.883 238.899 511.283 239.066 504.283 238.399V239.899L501.783 246.899C504.283 246.899 511.183 246.699 518.783 245.899C526.383 245.099 539.617 237.233 545.283 233.399L552.283 241.399L548.283 226.899Z" fill="#272D53"/>
</g>
<g id="hand1">
<path id="Vector 35 (Stroke)" fill-rule="evenodd" clip-rule="evenodd" d="M417.375 214.623C418.08 215.058 418.299 215.982 417.864 216.687C412.121 225.994 409.061 233.325 407.556 238.668C406.151 243.657 406.143 246.765 406.435 248.131C407.683 249.343 408.953 249.762 410.211 249.737C411.622 249.709 413.178 249.116 414.795 248.066C418.04 245.96 421.053 242.327 422.828 239.585C423.278 238.889 424.207 238.69 424.902 239.14C425.598 239.59 425.797 240.519 425.347 241.214C423.454 244.139 420.167 248.156 416.429 250.583C414.555 251.799 412.449 252.694 410.27 252.737C408.024 252.781 405.866 251.915 403.995 249.927L403.76 249.678L403.657 249.351C403.023 247.343 403.095 243.443 404.668 237.855C406.264 232.191 409.453 224.605 415.311 215.112C415.746 214.407 416.67 214.188 417.375 214.623Z" fill="#262E53"/>
</g>
<path id="Ellipse 67" d="M513.783 192.899C513.783 207.259 502.143 218.899 487.783 218.899C473.424 218.899 461.783 207.259 461.783 192.899C461.783 178.54 473.424 166.899 487.783 166.899C502.143 166.899 513.783 178.54 513.783 192.899Z" fill="#2ED7DE"/>
<path id="Subtract" fill-rule="evenodd" clip-rule="evenodd" d="M463.492 166.899C437.027 167.584 415.783 189.252 415.783 215.883C415.783 242.945 437.721 264.883 464.783 264.883C491.361 264.883 512.997 243.722 513.762 217.33L463.492 166.899Z" fill="#FF7BC4"/>
<path id="Ellipse 68" d="M426.386 210.564C428.07 213.692 426.625 217.741 423.159 219.607C419.692 221.474 415.517 220.45 413.833 217.322C412.148 214.193 413.593 210.144 417.06 208.278C420.526 206.412 424.702 207.435 426.386 210.564Z" fill="#2ED7DE"/>
<g id="eyes">
<path id="eye2" d="M433.783 225.399C433.783 224.019 434.902 222.899 436.283 222.899V222.899C437.664 222.899 438.783 224.019 438.783 225.399V229.399C438.783 230.78 437.664 231.899 436.283 231.899V231.899C434.902 231.899 433.783 230.78 433.783 229.399V225.399Z" fill="#262E53"/>
<path id="eye1" d="M452.783 225.399C452.783 224.019 453.902 222.899 455.283 222.899V222.899C456.664 222.899 457.783 224.019 457.783 225.399V229.399C457.783 230.78 456.664 231.899 455.283 231.899V231.899C453.902 231.899 452.783 230.78 452.783 229.399V225.399Z" fill="#262E53"/>
</g>
<g id="hand2">
<path id="Vector 26 (Stroke)" fill-rule="evenodd" clip-rule="evenodd" d="M487.49 233.414C488.31 233.528 488.883 234.285 488.769 235.106C485.717 257.085 476.24 267.215 465.216 270.536C454.39 273.797 442.584 270.317 435.065 266.216C434.338 265.82 434.07 264.908 434.467 264.181C434.863 263.454 435.774 263.186 436.502 263.583C443.65 267.482 454.594 270.602 464.351 267.663C473.91 264.784 482.85 255.913 485.798 234.693C485.912 233.872 486.669 233.3 487.49 233.414Z" fill="#262E53"/>
<path id="Ellipse 69" d="M436.371 261.961C437.561 265.309 435.519 269.092 431.809 270.41C428.1 271.729 424.128 270.084 422.938 266.736C421.748 263.388 423.79 259.605 427.5 258.287C431.209 256.968 435.181 258.613 436.371 261.961Z" fill="#2ED7DE"/>
</g>
</g>
</g>
</g>
<g id="PHP">
<path d="M542.456 272.684L545.586 271.845L544.138 266.444L546.758 265.742C549.957 264.885 551.729 262.224 550.946 259.303C550.157 256.358 547.305 254.986 544.106 255.843L538.356 257.384L542.456 272.684ZM543.405 263.708L542.225 259.304L544.845 258.602C546.259 258.223 547.399 258.862 547.747 260.16C548.101 261.481 547.486 262.615 546.025 263.006L543.405 263.708Z" fill="#272D53" fill-opacity="0.78"/>
<path d="M556.221 268.996L559.35 268.157L557.58 261.55L564.349 259.736L566.119 266.343L569.249 265.505L565.149 250.205L562.02 251.043L563.591 256.908L556.822 258.722L555.25 252.857L552.121 253.695L556.221 268.996Z" fill="#272D53" fill-opacity="0.78"/>
<path d="M572.747 264.568L575.877 263.729L574.429 258.327L577.049 257.626C580.248 256.768 582.02 254.107 581.237 251.186C580.448 248.242 577.596 246.87 574.396 247.727L568.647 249.267L572.747 264.568ZM573.696 255.592L572.516 251.187L575.136 250.485C576.55 250.107 577.69 250.745 578.038 252.043C578.392 253.365 577.776 254.499 576.316 254.89L573.696 255.592Z" fill="#272D53" fill-opacity="0.78"/>
</g>
<g id="JS">
<path d="M309.017 175.971C309.774 176.03 310.515 176 311.218 175.882C314.144 175.392 315.538 173.69 315.064 170.854L313.226 159.875L310.164 160.387L311.948 171.049C312.165 172.342 311.568 172.955 310.093 173.202C309.912 173.232 309.409 173.293 308.581 173.362L309.017 175.971Z" fill="#272D53" fill-opacity="0.78"/>
<path d="M317.62 171.406C319.115 173.231 321.418 174.175 323.959 173.749C326.953 173.248 328.907 171.126 328.447 168.381C328.11 166.362 326.721 165.312 324.017 164.622L322.19 164.158C320.825 163.803 320.288 163.52 320.155 162.726C320 161.796 320.706 161.141 321.772 160.963C322.907 160.773 323.954 161.181 324.919 162.209L326.737 160.249C325.518 158.68 323.608 157.857 321.317 158.241C318.481 158.715 316.63 160.751 317.059 163.314C317.393 165.311 318.948 166.38 321.41 167.017L323.142 167.473C324.681 167.892 325.211 168.13 325.359 169.014C325.53 170.035 324.842 170.803 323.504 171.027C321.87 171.301 320.664 170.64 319.464 169.465L317.62 171.406Z" fill="#272D53" fill-opacity="0.78"/>
</g>
</g>
<defs>
<filter id="filter0_f" x="0.223633" y="73.971" width="766.041" height="373.034" filterUnits="userSpaceOnUse" color-interpolation-filters="sRGB">
<feFlood flood-opacity="0" result="BackgroundImageFix"/>
<feBlend mode="normal" in="SourceGraphic" in2="BackgroundImageFix" result="shape"/>
<feGaussianBlur stdDeviation="67.5" result="effect1_foregroundBlur"/>
</filter>
<filter id="filter1_f" x="311.148" y="0.899414" width="351.037" height="323.71" filterUnits="userSpaceOnUse" color-interpolation-filters="sRGB">
<feFlood flood-opacity="0" result="BackgroundImageFix"/>
<feBlend mode="normal" in="SourceGraphic" in2="BackgroundImageFix" result="shape"/>
<feGaussianBlur stdDeviation="56.5" result="effect1_foregroundBlur"/>
</filter>
<filter id="filter2_f" x="339.783" y="41.8994" width="398.867" height="382.524" filterUnits="userSpaceOnUse" color-interpolation-filters="sRGB">
<feFlood flood-opacity="0" result="BackgroundImageFix"/>
<feBlend mode="normal" in="SourceGraphic" in2="BackgroundImageFix" result="shape"/>
<feGaussianBlur stdDeviation="56.5" result="effect1_foregroundBlur"/>
</filter>
<filter id="filter3_f" x="72.7832" y="17.8994" width="398.867" height="382.524" filterUnits="userSpaceOnUse" color-interpolation-filters="sRGB">
<feFlood flood-opacity="0" result="BackgroundImageFix"/>
<feBlend mode="normal" in="SourceGraphic" in2="BackgroundImageFix" result="shape"/>
<feGaussianBlur stdDeviation="56.5" result="effect1_foregroundBlur"/>
</filter>
<filter id="filter4_f" x="185.783" y="26.0001" width="313.784" height="222.732" filterUnits="userSpaceOnUse" color-interpolation-filters="sRGB">
<feFlood flood-opacity="0" result="BackgroundImageFix"/>
<feBlend mode="normal" in="SourceGraphic" in2="BackgroundImageFix" result="shape"/>
<feGaussianBlur stdDeviation="27.5" result="effect1_foregroundBlur"/>
</filter>
<filter id="filter5_f" x="23" y="9" width="291.944" height="268.284" filterUnits="userSpaceOnUse" color-interpolation-filters="sRGB">
<feFlood flood-opacity="0" result="BackgroundImageFix"/>
<feBlend mode="normal" in="SourceGraphic" in2="BackgroundImageFix" result="shape"/>
<feGaussianBlur stdDeviation="27.5" result="effect1_foregroundBlur"/>
</filter>
<linearGradient id="paint0_linear" x1="147.905" y1="93.9182" x2="190.039" y2="192.365" gradientUnits="userSpaceOnUse">
<stop stop-color="#65DFC9" stop-opacity="0.24"/>
<stop offset="1" stop-color="#FEBC2E" stop-opacity="0.52"/>
</linearGradient>
</defs>
</svg>
